<?xml version="1.0" encoding="UTF-8"?>
<svg xmlns="http://www.w3.org/2000/svg" version="1.1" viewBox="0 0 595.28 419.53">
  <defs>
    <style>
      .cls-1 {
        fill: #878787;
      }
    </style>
  </defs>
  <!-- Generator: Adobe Illustrator 28.7.1, SVG Export Plug-In . SVG Version: 1.2.0 Build 142)  -->
  <g>
    <g id="Ebene_1">
      <path d="M333.91,292.43"/>
      <path class="cls-1" d="M237.99,144.94c.1,1,.52,1.52,1.34,1.97,13.38,7.37,47.79,26.66,51.82,28.9.3.17.56.41.84.61-.32-.07-.64-.1-.94-.2-7.87-2.56-15.73-4.77-23.59-7.34-1.35-.44-2.69-.57-4.04-1.01-.17-.05-.37,0-.56,0h0c.04.18.03.38.12.54.12.22.29.41.44.62,3.44,4.65,7.1,8.96,11.16,14.34.7.93,1.4,2.95,1.44,4.23.1,2.85-7.66,11.36-13.15,17.91-5.44,6.51-15.58,17-18.9,20.41-.69.71-1.63,1.13-2.63,1.17,0,0-61.05,2.52-61.05,2.6s49.16,2.19,59.09,2.62c1.06.05,1.99.7,2.4,1.68,3.28,7.98,17.64,42.9,17.79,43.17l-9.38-33.36c-.3-1.02-.16-1.7.35-2.53,6.34-10.32,23.33-35.77,23.37-35.96-.14.12-22.45,28.4-25.15,31.76-.12.15-.37.11-.41-.07-.28-1.04-.69-2.53-.84-3.21-.26-1.14-.18-1.86.54-2.76,5.27-6.63,10.31-13.2,15.55-19.86,5.4-6.85,11.68-13.5,17.05-20.36.54-.69,1.18-1.03,2.01-1.22,2.77-.63,5.8-.68,8.63-.96q.73-.07,1.51-.19s.35-.19,0-.36c-.55-.2-.87-.33-1.64-.58-1.64-.53-3.35-.78-5.03-1.18-.17-.04-.31-.19-.46-.28.18-.06.35-.17.54-.18,1.22-.06,2.43-.1,3.65-.15,2.28-.08,4.56-.14,6.83-.25.7-.03.32-.36.14-.45-.07-.03-.18-.08-.25-.1-5.66-1.77-11.32-3.57-17-5.3-1.21-.37-2.25-.87-2.97-1.93-.34-.49-.69-.97-1.04-1.46,0,0,0,0,0,0,.62.11,1.27.14,1.86.33,6.98,2.15,13.98,4.25,20.92,6.53,2.64.86,2.96.94,5.48,2.12.27.13.99.37,1.07.68-.39.25-1.12.63-2.5.53-.2-.02-.59-.2-.73,0,0,.25.43.63.55.76,2.17,2.2,4.81,4.66,6.98,6.87.56.57.93.36,1.4-.21.8-.96,1.39-2.21,1.83-3.26.34-.81.63-1.05,1.48-.65,3.21,1.51,5.88,2.57,9.11,4.04,1.84.84,3.89,1.44,5.46,2.64,2.8,2.16,5.32,4.69,7.95,7.08.14.13.22.32.32.48h0c-.21.07-.44.22-.64.19-1.24-.18-1.89.4-2.2,1.54-.11.38-.41.71-.53,1.09-.25.79-.74.82-1.42.63-1.32-.37-2.67-.64-3.98-1.03-7.46-2.2-12.12-3.57-18.51-4.4-.23-.03-2.12.63-2.35.81h0c.4.09,1.36.07,1.6.11,3.71.68,5.61,1.8,7.98,2.83-1.36.02-2.72,0-4.06.15-6.5.77-13.44,2.23-19.92,3.1-1.01.14-1.3-.17-1.48-1.09-.43-2.29-.92-4.58-1.46-6.85-.2-.86-.05-1.57.41-2.3,1.02-1.63,2.46-3.92,3.45-5.58.11-.19.11-.45.16-.68,0,0,0,0,0,0-.23.07-.49.08-.68.21-2.39,1.54-4.78,3.07-7.12,4.68-.36.25-.61.9-.63,1.37-.03.96.13,1.92.21,2.88.37,4.45.74,8.89,1.12,13.34.15,1.81.85,1.8,2.68,1.36,1.08-.26,2.53-.99,3.62-1.22,1.23-.26,1.27-.21,1,.96-.06.25-.14.49-.21.73-1.61,6.08-22.45,76.27-22.47,76.46.08-.17,24.82-72.48,27.04-78.93.09-.26.31-.45.58-.5.85-.16,2.67-.5,3-.54.16-.02.3.12.28.28-.06.47-33.69,99.42-33.7,99.57.07-.15,38.14-95.6,40.05-100.46.18-.45.46-1.11.8-1.19,2-.46,4.07-1.22,6.06-1.07,5.91.45,11.78,1.3,17.68,1.93,3.35.36,2.51.71,3.69-2.12.1-.23.23-.46.3-.7.28-1.07.85-1.66,2.05-1.45,1.17.21,1.6-.78,1.92-2.59.22-1.23.65-2.41,1.31-3.47.86-1.37.62-1.85-.39-2.31-2.94-1.36-4.82-4.02-7.75-5.41-9.02-4.29-18.04-8.58-27.06-12.87-1.28-.61-2.56-1.2-3.84-1.83-.17-.08-.28-.28-.42-.42.17,0,.35-.04.52-.01,1.15.19,1.21.28,2.49.45,7.74,1.06,31.66,4.49,35.35,5.01.29.04.58-.08.76-.31l15.13-19.58-18.21,14.87c-.31.25-.72.36-1.11.3-2.15-.32-9-1.76-10.43-2.09-.17-.04-.24-.25-.12-.38,1.7-1.93,10.79-13.19,10.52-13.25-.26-.05-13.33,10.03-16.17,11.91-.32.21-.69.31-1.07.27-1.51-.14-6.67-1.27-8.15-1.56-.19-.04-.27-.27-.15-.42,1.52-1.84,9.49-10.99,9.53-11.13-.13.02-11.99,8.51-14.22,10.14-.24.18-.55.23-.83.16-1.6-.42-5.76-1.1-7.18-1.59-.86-.3-2.12-1.04-2.9-1.46q-3.76-2.05-10.75-5.76c-.82-.44-.91-1.08-1.15-1.96-1.12-4.12-7.22-25.87-7.36-26.07-.02.24,1.27,20.93,1.46,23.93.01.16-.16.28-.31.2-1.17-.63-4.74-2.26-7.84-4.11-.38-.22-.7-.7-.88-1.14-2.82-6.96-10.7-32.4-10.85-32.55,0,.18,2.49,25.66,2.73,28.63.01.13-.11.22-.23.18-.25-.08-11.75-6.18-15.07-7.92-.82-.43-1.18-1-1.42-1.81-3.19-10.48-11.36-38.03-11.48-38.15M310.41,189.05c0,.31-.09,1.05-.36,1.35-.17.18-.47.51-.85.23l-3.08-2.96c-.08-.08,0-.21.1-.19l3.79.88c.24.07.39.38.39.69Z"/>
    </g>
  </g>
</svg>