<?xml version="1.0" encoding="UTF-8" standalone="no"?><!DOCTYPE svg PUBLIC "-//W3C//DTD SVG 1.1//EN" "http://www.w3.org/Graphics/SVG/1.1/DTD/svg11.dtd"><svg width="100%" height="100%" viewBox="0 0 95 67" version="1.1" xmlns="http://www.w3.org/2000/svg" xmlns:xlink="http://www.w3.org/1999/xlink" xml:space="preserve" xmlns:serif="http://www.serif.com/" style="fill-rule:evenodd;clip-rule:evenodd;stroke-linejoin:round;stroke-miterlimit:2;"><g><g id="Ebene_1"><path d="M37.969,23.124c0.016,0.159 0.083,0.242 0.214,0.314c2.134,1.176 7.624,4.253 8.267,4.611c0.048,0.027 0.089,0.065 0.134,0.097c-0.051,-0.011 -0.102,-0.016 -0.15,-0.032c-1.255,-0.408 -2.509,-0.761 -3.763,-1.171c-0.216,-0.07 -0.43,-0.091 -0.645,-0.161c-0.027,-0.008 -0.059,0 -0.089,0c0.006,0.029 0.005,0.061 0.019,0.086c0.019,0.035 0.046,0.066 0.07,0.099c0.549,0.742 1.133,1.43 1.781,2.288c0.111,0.148 0.223,0.471 0.229,0.675c0.016,0.454 -1.222,1.812 -2.098,2.857c-0.868,1.039 -2.485,2.712 -3.015,3.256c-0.11,0.114 -0.26,0.181 -0.42,0.187c0,-0 -9.739,0.402 -9.739,0.415c-0,0.013 7.843,0.349 9.427,0.418c0.169,0.008 0.317,0.111 0.383,0.268c0.523,1.273 2.814,6.844 2.838,6.887l-1.497,-5.322c-0.047,-0.163 -0.025,-0.271 0.056,-0.404c1.012,-1.646 3.722,-5.706 3.729,-5.737c-0.023,0.019 -3.582,4.531 -4.013,5.067c-0.019,0.024 -0.059,0.018 -0.065,-0.011c-0.045,-0.166 -0.11,-0.404 -0.134,-0.512c-0.042,-0.182 -0.029,-0.297 0.086,-0.44c0.841,-1.058 1.645,-2.106 2.481,-3.169c0.861,-1.093 1.863,-2.154 2.72,-3.248c0.086,-0.11 0.188,-0.164 0.321,-0.195c0.442,-0.1 0.925,-0.108 1.376,-0.153c0.078,-0.007 0.158,-0.017 0.241,-0.03c0.083,-0.013 0.056,-0.031 0,-0.058c-0.087,-0.032 -0.138,-0.052 -0.261,-0.092c-0.262,-0.085 -0.535,-0.125 -0.803,-0.188c-0.027,-0.007 -0.049,-0.031 -0.073,-0.045c0.029,-0.01 0.056,-0.027 0.086,-0.029c0.195,-0.009 0.388,-0.016 0.582,-0.024c0.364,-0.013 0.728,-0.022 1.09,-0.04c0.112,-0.004 0.051,-0.057 0.022,-0.071c-0.011,-0.005 -0.028,-0.013 -0.04,-0.016c-0.903,-0.283 -1.806,-0.57 -2.712,-0.846c-0.193,-0.059 -0.359,-0.139 -0.474,-0.308c-0.054,-0.078 -0.11,-0.155 -0.165,-0.233c0.098,0.018 0.202,0.023 0.296,0.053c1.114,0.343 2.231,0.678 3.338,1.042c0.421,0.137 0.472,0.15 0.874,0.338c0.043,0.021 0.158,0.059 0.171,0.108c-0.062,0.04 -0.179,0.101 -0.399,0.085c-0.032,-0.003 -0.094,-0.032 -0.116,-0c-0,0.04 0.068,0.1 0.087,0.121c0.346,0.351 0.768,0.744 1.114,1.096c0.089,0.091 0.148,0.058 0.223,-0.033c0.128,-0.153 0.222,-0.353 0.292,-0.52c0.054,-0.13 0.101,-0.168 0.236,-0.104c0.512,0.241 0.938,0.41 1.454,0.644c0.293,0.134 0.62,0.23 0.871,0.422c0.446,0.344 0.849,0.748 1.268,1.129c0.022,0.021 0.035,0.051 0.051,0.077c-0.033,0.011 -0.07,0.035 -0.102,0.03c-0.198,-0.029 -0.301,0.064 -0.351,0.246c-0.017,0.06 -0.065,0.113 -0.084,0.174c-0.04,0.126 -0.119,0.13 -0.227,0.1c-0.211,-0.059 -0.426,-0.102 -0.635,-0.164c-1.19,-0.351 -1.934,-0.57 -2.953,-0.702c-0.037,-0.005 -0.338,0.1 -0.375,0.129c0.064,0.014 0.217,0.011 0.255,0.018c0.592,0.108 0.895,0.287 1.273,0.451c-0.217,0.003 -0.434,0 -0.647,0.024c-1.037,0.123 -2.145,0.356 -3.178,0.495c-0.162,0.022 -0.208,-0.027 -0.236,-0.174c-0.069,-0.366 -0.147,-0.731 -0.233,-1.093c-0.032,-0.137 -0.008,-0.251 0.065,-0.367c0.163,-0.26 0.392,-0.625 0.55,-0.89c0.018,-0.031 0.018,-0.072 0.026,-0.109c-0.037,0.011 -0.078,0.013 -0.109,0.034c-0.381,0.245 -0.762,0.49 -1.135,0.746c-0.058,0.04 -0.098,0.144 -0.101,0.219c-0.005,0.153 0.021,0.306 0.034,0.459c0.059,0.71 0.118,1.419 0.178,2.129c0.024,0.288 0.136,0.287 0.428,0.217c0.172,-0.042 0.403,-0.158 0.577,-0.195c0.197,-0.041 0.203,-0.033 0.16,0.153c-0.01,0.04 -0.023,0.078 -0.034,0.117c-0.257,0.97 -3.581,12.168 -3.585,12.198c0.013,-0.027 3.96,-11.563 4.314,-12.592c0.015,-0.042 0.05,-0.072 0.093,-0.08c0.136,-0.026 0.426,-0.08 0.479,-0.086c0.025,-0.004 0.047,0.019 0.044,0.044c-0.009,0.075 -5.375,15.862 -5.376,15.886c0.011,-0.024 6.085,-15.252 6.389,-16.028c0.029,-0.071 0.074,-0.177 0.128,-0.19c0.319,-0.073 0.649,-0.194 0.967,-0.17c0.943,0.072 1.879,0.207 2.82,0.308c0.535,0.057 0.401,0.113 0.589,-0.339c0.016,-0.036 0.037,-0.073 0.048,-0.111c0.045,-0.171 0.136,-0.265 0.327,-0.232c0.187,0.034 0.255,-0.124 0.306,-0.413c0.035,-0.196 0.104,-0.384 0.209,-0.553c0.138,-0.219 0.099,-0.296 -0.062,-0.369c-0.469,-0.217 -0.769,-0.641 -1.236,-0.863c-1.439,-0.684 -2.878,-1.369 -4.317,-2.053c-0.205,-0.098 -0.409,-0.192 -0.613,-0.292c-0.027,-0.013 -0.045,-0.045 -0.067,-0.067c0.027,-0 0.056,-0.007 0.083,-0.002c0.183,0.03 0.193,0.045 0.397,0.072c1.235,0.169 5.051,0.716 5.64,0.799c0.046,0.007 0.092,-0.013 0.121,-0.049l2.414,-3.124l-2.905,2.372c-0.05,0.04 -0.115,0.058 -0.177,0.048c-0.343,-0.051 -1.436,-0.281 -1.664,-0.333c-0.027,-0.007 -0.039,-0.04 -0.019,-0.061c0.271,-0.308 1.721,-2.104 1.678,-2.114c-0.042,-0.008 -2.127,1.6 -2.58,1.9c-0.051,0.034 -0.11,0.05 -0.171,0.043c-0.24,-0.022 -1.064,-0.202 -1.3,-0.248c-0.03,-0.007 -0.043,-0.044 -0.024,-0.067c0.243,-0.294 1.514,-1.754 1.521,-1.776c-0.021,0.003 -1.913,1.358 -2.269,1.618c-0.038,0.028 -0.088,0.036 -0.132,0.025c-0.256,-0.067 -0.919,-0.175 -1.146,-0.254c-0.137,-0.047 -0.338,-0.165 -0.463,-0.232c-0.4,-0.219 -0.971,-0.525 -1.715,-0.919c-0.13,-0.071 -0.145,-0.173 -0.183,-0.313c-0.179,-0.657 -1.152,-4.127 -1.174,-4.159c-0.004,0.038 0.202,3.339 0.233,3.817c0.001,0.026 -0.026,0.045 -0.05,0.032c-0.187,-0.1 -0.756,-0.36 -1.251,-0.655c-0.06,-0.035 -0.111,-0.112 -0.14,-0.182c-0.45,-1.111 -1.707,-5.169 -1.731,-5.193c-0,0.028 0.397,4.094 0.435,4.567c0.002,0.021 -0.017,0.035 -0.036,0.029c-0.04,-0.013 -1.875,-0.986 -2.404,-1.263c-0.131,-0.069 -0.189,-0.16 -0.227,-0.289c-0.509,-1.672 -1.812,-6.068 -1.832,-6.087m12.266,13.542c-0,0.05 -0.014,0.168 -0.058,0.215c-0.027,0.029 -0.075,0.082 -0.135,0.037l-0.492,-0.472c-0.012,-0.013 0,-0.034 0.016,-0.03l0.605,0.14c0.038,0.011 0.062,0.061 0.062,0.11l0.002,0Z" style="fill:#878787;fill-rule:nonzero;"/></g></g><g id="The-Deers-Logo-nur-Hirsch.svg" serif:id="The Deers Logo nur Hirsch.svg"></g></svg>