<?xml version="1.0" encoding="UTF-8"?>
<svg xmlns="http://www.w3.org/2000/svg" version="1.1" viewBox="0 0 595.28 419.53">
  <defs>
    <style>
      .cls-1 {
        fill: #dadada;
      }

      .cls-2 {
        fill: #878787;
      }
    </style>
  </defs>
  <!-- Generator: Adobe Illustrator 28.7.1, SVG Export Plug-In . SVG Version: 1.2.0 Build 142)  -->
  <g>
    <g id="Ebene_1">
      <rect class="cls-1" width="595.28" height="419.53"/>
      <path d="M333.91,292.43"/>
      <path class="cls-2" d="M194.64,98.1c.17,1.73.89,2.63,2.32,3.42,23.2,12.78,82.86,46.22,89.85,50.11.52.29.97.7,1.46,1.06-.55-.11-1.11-.18-1.64-.35-13.64-4.43-27.27-8.28-40.9-12.73-2.34-.76-4.66-.99-7-1.76-.29-.1-.64,0-.97,0h0c.06.31.06.66.2.93.2.38.51.71.77,1.07,5.97,8.06,12.3,15.53,19.36,24.86,1.21,1.6,2.43,5.11,2.51,7.34.17,4.94-13.29,19.69-22.8,31.06s-27.01,29.48-32.77,35.39c-1.2,1.23-2.83,1.96-4.55,2.03,0,0-105.85,4.38-105.85,4.51s85.23,3.8,102.44,4.54c1.84.08,3.46,1.22,4.16,2.92,5.68,13.83,30.58,74.39,30.85,74.85l-16.26-57.85c-.52-1.76-.27-2.95.61-4.39,11-17.9,40.46-62.02,40.51-62.35-.24.21-38.92,49.23-43.61,55.07-.2.25-.63.2-.72-.12-.48-1.8-1.19-4.38-1.46-5.57-.44-1.98-.3-3.23.93-4.78,9.15-11.49,17.88-22.89,26.97-34.43,9.35-11.87,20.24-23.41,29.57-35.31.94-1.2,2.05-1.79,3.49-2.12,4.8-1.1,10.06-1.17,14.95-1.67q1.26-.13,2.61-.34s.6-.33,0-.63c-.94-.34-1.51-.58-2.84-1.01-2.84-.92-5.82-1.35-8.72-2.05-.29-.07-.53-.32-.8-.49.31-.11.61-.3.93-.31,2.11-.11,4.22-.18,6.33-.25,3.95-.14,7.9-.24,11.85-.43,1.21-.06.55-.62.24-.77-.12-.06-.31-.14-.44-.18-9.82-3.07-19.63-6.19-29.47-9.19-2.1-.64-3.9-1.51-5.16-3.34-.59-.85-1.2-1.69-1.8-2.53,0,0,0,0,0,0,1.08.18,2.19.25,3.23.57,12.1,3.73,24.24,7.37,36.27,11.31,4.58,1.5,5.13,1.62,9.5,3.68.47.22,1.71.64,1.85,1.18-.68.44-1.94,1.1-4.34.92-.34-.03-1.02-.34-1.27.01-.01.43.75,1.09.96,1.31,3.77,3.82,8.34,8.08,12.09,11.91.97.99,1.6.62,2.43-.36,1.39-1.66,2.42-3.84,3.18-5.66.59-1.41,1.09-1.82,2.56-1.13,5.57,2.61,10.2,4.46,15.8,7.01,3.2,1.46,6.74,2.49,9.46,4.58,4.86,3.74,9.22,8.14,13.78,12.27.24.22.38.55.56.83h0c-.37.12-.77.38-1.11.33-2.15-.32-3.27.7-3.81,2.68-.18.66-.72,1.23-.92,1.89-.42,1.37-1.28,1.42-2.46,1.09-2.29-.64-4.62-1.11-6.9-1.78-12.93-3.82-21.01-6.19-32.09-7.62-.4-.05-3.68,1.09-4.08,1.41h0c.7.15,2.36.12,2.77.19,6.43,1.18,9.73,3.12,13.84,4.91-2.35.04-4.71-.02-7.04.26-11.26,1.34-23.3,3.87-34.54,5.38-1.76.24-2.26-.3-2.56-1.9-.74-3.98-1.6-7.93-2.52-11.87-.35-1.49-.09-2.73.7-3.99,1.78-2.83,4.27-6.8,5.98-9.67.2-.33.19-.78.28-1.17,0,0,0,0,0,0-.4.11-.85.14-1.18.36-4.14,2.67-8.3,5.32-12.35,8.11-.63.43-1.06,1.56-1.09,2.38-.06,1.66.22,3.33.36,4.99.65,7.71,1.29,15.42,1.94,23.12.27,3.13,1.48,3.13,4.65,2.36,1.88-.46,4.38-1.71,6.28-2.12,2.13-.45,2.21-.36,1.73,1.67-.1.43-.24.85-.36,1.27-2.79,10.55-38.93,132.24-38.95,132.57.14-.3,43.03-125.66,46.89-136.85.16-.45.54-.78,1.01-.87,1.47-.28,4.64-.86,5.21-.93.28-.04.52.2.49.48-.1.81-58.4,172.37-58.43,172.64.12-.25,66.12-165.75,69.44-174.18.3-.77.79-1.92,1.39-2.06,3.47-.8,7.06-2.11,10.51-1.85,10.24.77,20.43,2.25,30.65,3.35,5.81.62,4.35,1.23,6.4-3.67.17-.41.4-.79.51-1.21.48-1.85,1.47-2.88,3.55-2.51,2.03.37,2.78-1.35,3.33-4.49.38-2.13,1.12-4.19,2.27-6.02,1.49-2.37,1.07-3.2-.67-4.01-5.1-2.36-8.36-6.97-13.44-9.38-15.64-7.44-31.28-14.88-46.92-22.32-2.22-1.05-4.45-2.09-6.65-3.16-.29-.14-.48-.48-.72-.73.3,0,.61-.07.91-.02,1.99.33,2.11.48,4.32.78,13.43,1.83,54.89,7.78,61.29,8.69.5.07,1-.13,1.31-.53l26.24-33.95-31.57,25.78c-.54.44-1.24.63-1.93.52-3.72-.56-15.6-3.04-18.09-3.62-.3-.07-.42-.43-.21-.66,2.96-3.34,18.71-22.87,18.24-22.96-.46-.09-23.12,17.4-28.03,20.66-.55.37-1.2.54-1.86.47-2.63-.24-11.57-2.2-14.12-2.7-.33-.07-.47-.46-.26-.72,2.64-3.19,16.45-19.06,16.52-19.3-.22.03-20.78,14.75-24.66,17.58-.42.3-.95.4-1.45.27-2.77-.73-9.98-1.91-12.45-2.76-1.49-.51-3.67-1.8-5.03-2.53q-6.52-3.55-18.65-9.98c-1.42-.76-1.58-1.87-1.99-3.39-1.93-7.14-12.52-44.85-12.76-45.2-.04.42,2.2,36.29,2.54,41.49.02.28-.28.48-.53.34-2.02-1.09-8.21-3.92-13.59-7.12-.65-.39-1.22-1.22-1.52-1.97-4.89-12.07-18.55-56.17-18.82-56.43,0,.32,4.31,44.49,4.73,49.63.02.22-.19.38-.4.32-.43-.13-20.37-10.72-26.13-13.74-1.41-.74-2.04-1.73-2.47-3.14-5.52-18.18-19.7-65.94-19.91-66.15M320.2,174.58c0,.53-.15,1.83-.62,2.34-.29.32-.82.89-1.47.4l-5.35-5.13c-.13-.14,0-.37.18-.33l6.58,1.53c.42.11.68.66.68,1.19Z"/>
      <g>
        <path class="cls-2" d="M55.73,277.43h-16.98v-7.82h42.79v7.82h-16.98v49.35h-8.83v-49.35Z"/>
        <path class="cls-2" d="M91.13,269.61h8.91v30.77h27.49v-30.77h8.91v57.16h-8.91v-18.49h-27.49v18.49h-8.91v-57.16Z"/>
        <path class="cls-2" d="M150.23,269.61h36.32v7.82h-27.41v22.19h24.29v7.65h-24.29v11.68h28.58v7.82h-37.49v-57.16Z"/>
      </g>
      <g>
        <path class="cls-2" d="M314.42,268.14h15.72c18.33,0,30.52,11.43,30.52,28.58s-12.11,28.58-30.52,28.58h-15.72v-57.16ZM329.55,317.48c14.88,0,21.86-8.57,21.86-20.76s-6.98-20.76-21.86-20.76h-6.22v41.53h6.22Z"/>
        <path class="cls-2" d="M371.75,268.14h36.32v7.82h-27.41v22.19h24.29v7.65h-24.29v11.68h28.58v7.82h-37.49v-57.16Z"/>
        <path class="cls-2" d="M421.1,268.14h36.32v7.82h-27.41v22.19h24.29v7.65h-24.29v11.68h28.58v7.82h-37.49v-57.16Z"/>
        <path class="cls-2" d="M510.04,325.3h-10.26l-10.26-15.05c-1.6.17-3.19.34-4.79.34h-5.38v14.71h-8.91v-57.16h14.29c15.8,0,24.63,8.24,24.63,21.35,0,8.83-3.95,14.88-11.43,18.16l12.11,17.65ZM484.4,302.94c11.35,0,15.89-4.96,15.89-13.45s-4.71-13.53-15.89-13.53h-5.04v26.98h5.04Z"/>
        <path class="cls-2" d="M516.18,314.2l7.31-4.04c2.69,4.46,6.14,7.99,13.11,7.99,5.8,0,9.92-3.11,9.92-7.82,0-4.96-3.36-7.15-9.58-9.92l-3.78-1.68c-8.32-3.7-13.37-7.9-13.37-16.73s6.56-14.54,16.06-14.54c7.57,0,12.69,2.86,16.14,8.99l-6.98,4.29c-2.19-3.78-4.71-5.55-9.16-5.55s-7.4,2.77-7.4,6.64c0,4.29,2.44,6.22,8.24,8.74l3.7,1.68c9.75,4.29,14.96,8.83,14.96,17.99,0,10-7.82,15.8-18.58,15.8s-17.4-5.38-20.6-11.85Z"/>
      </g>
    </g>
  </g>
</svg>