<?xml version="1.0" encoding="UTF-8" standalone="no"?><!DOCTYPE svg PUBLIC "-//W3C//DTD SVG 1.1//EN" "http://www.w3.org/Graphics/SVG/1.1/DTD/svg11.dtd"><svg width="100%" height="100%" viewBox="0 0 32 32" version="1.1" xmlns="http://www.w3.org/2000/svg" xmlns:xlink="http://www.w3.org/1999/xlink" xml:space="preserve" xmlns:serif="http://www.serif.com/" style="fill-rule:evenodd;clip-rule:evenodd;stroke-linejoin:round;stroke-miterlimit:2;"><g id="Ebene_1"><path d="M10.439,7.376c0.018,0.181 0.094,0.275 0.242,0.356c2.421,1.334 8.646,4.823 9.375,5.229c0.054,0.03 0.101,0.074 0.152,0.11c-0.058,-0.013 -0.116,-0.018 -0.17,-0.036c-1.424,-0.463 -2.846,-0.863 -4.268,-1.328c-0.244,-0.08 -0.486,-0.103 -0.731,-0.183c-0.03,-0.009 -0.067,0 -0.101,0c0.007,0.033 0.005,0.069 0.022,0.098c0.021,0.04 0.052,0.074 0.079,0.112c0.623,0.841 1.285,1.621 2.019,2.594c0.127,0.169 0.254,0.534 0.261,0.766c0.018,0.515 -1.386,2.055 -2.379,3.24c-0.984,1.178 -2.819,3.075 -3.419,3.692c-0.125,0.129 -0.295,0.205 -0.476,0.212c-0,-0 -11.045,0.456 -11.045,0.47c0,0.015 8.894,0.396 10.69,0.474c0.192,0.009 0.36,0.127 0.434,0.304c0.594,1.444 3.192,7.761 3.219,7.81l-1.697,-6.035c-0.054,-0.185 -0.029,-0.308 0.063,-0.458c1.147,-1.867 4.221,-6.471 4.228,-6.505c-0.025,0.021 -4.061,5.138 -4.55,5.745c-0.022,0.028 -0.067,0.02 -0.074,-0.012c-0.051,-0.188 -0.125,-0.458 -0.152,-0.581c-0.047,-0.206 -0.033,-0.336 0.098,-0.499c0.953,-1.2 1.865,-2.388 2.813,-3.593c0.977,-1.24 2.113,-2.443 3.084,-3.684c0.098,-0.124 0.214,-0.186 0.364,-0.22c0.501,-0.114 1.049,-0.123 1.561,-0.174c0.088,-0.008 0.18,-0.02 0.274,-0.034c0.094,-0.015 0.063,-0.035 -0,-0.066c-0.1,-0.036 -0.158,-0.059 -0.297,-0.104c-0.297,-0.096 -0.606,-0.142 -0.91,-0.214c-0.031,-0.007 -0.056,-0.034 -0.083,-0.051c0.032,-0.01 0.063,-0.03 0.097,-0.032c0.221,-0.011 0.44,-0.018 0.661,-0.027c0.412,-0.015 0.825,-0.026 1.235,-0.046c0.127,-0.005 0.058,-0.065 0.026,-0.081c-0.013,-0.005 -0.033,-0.014 -0.046,-0.018c-1.024,-0.32 -2.047,-0.646 -3.075,-0.959c-0.219,-0.067 -0.407,-0.157 -0.537,-0.349c-0.062,-0.089 -0.125,-0.176 -0.189,-0.264c0.113,0.02 0.23,0.025 0.337,0.06c1.263,0.388 2.529,0.768 3.785,1.181c0.477,0.155 0.535,0.17 0.991,0.383c0.049,0.024 0.179,0.067 0.194,0.123c-0.071,0.046 -0.203,0.114 -0.453,0.096c-0.036,-0.003 -0.106,-0.036 -0.132,0c0,0.046 0.078,0.114 0.1,0.138c0.392,0.398 0.87,0.843 1.263,1.243c0.101,0.103 0.168,0.065 0.253,-0.038c0.145,-0.174 0.251,-0.4 0.331,-0.59c0.061,-0.147 0.114,-0.19 0.268,-0.118c0.58,0.274 1.063,0.465 1.648,0.731c0.333,0.152 0.704,0.261 0.988,0.478c0.506,0.391 0.962,0.848 1.438,1.281c0.025,0.023 0.04,0.058 0.058,0.087c-0.038,0.012 -0.08,0.039 -0.116,0.034c-0.224,-0.033 -0.342,0.072 -0.398,0.279c-0.02,0.068 -0.074,0.128 -0.096,0.197c-0.045,0.143 -0.134,0.148 -0.257,0.114c-0.239,-0.067 -0.483,-0.116 -0.72,-0.187c-1.349,-0.398 -2.193,-0.645 -3.349,-0.796c-0.041,-0.005 -0.383,0.114 -0.425,0.147c0.073,0.016 0.246,0.013 0.29,0.02c0.671,0.123 1.015,0.325 1.443,0.512c-0.246,0.003 -0.492,-0 -0.734,0.027c-1.176,0.139 -2.432,0.403 -3.604,0.561c-0.183,0.025 -0.235,-0.031 -0.268,-0.197c-0.077,-0.415 -0.166,-0.829 -0.264,-1.24c-0.036,-0.155 -0.009,-0.284 0.074,-0.416c0.185,-0.295 0.445,-0.709 0.625,-1.009c0.019,-0.035 0.019,-0.082 0.029,-0.123c-0.042,0.012 -0.089,0.014 -0.124,0.038c-0.432,0.278 -0.864,0.555 -1.288,0.846c-0.065,0.046 -0.11,0.163 -0.114,0.248c-0.005,0.174 0.024,0.348 0.038,0.521c0.067,0.805 0.134,1.609 0.203,2.414c0.027,0.327 0.154,0.325 0.485,0.246c0.195,-0.047 0.458,-0.179 0.655,-0.221c0.222,-0.047 0.23,-0.038 0.181,0.174c-0.011,0.045 -0.026,0.088 -0.038,0.132c-0.292,1.1 -4.062,13.798 -4.065,13.832c0.014,-0.03 4.49,-13.112 4.891,-14.279c0.017,-0.047 0.057,-0.082 0.105,-0.091c0.154,-0.029 0.483,-0.09 0.543,-0.097c0.029,-0.004 0.054,0.021 0.051,0.05c-0.011,0.085 -6.095,17.987 -6.097,18.014c0.013,-0.027 6.9,-17.295 7.246,-18.175c0.032,-0.081 0.083,-0.201 0.144,-0.215c0.362,-0.083 0.737,-0.221 1.097,-0.194c1.069,0.082 2.131,0.236 3.198,0.35c0.606,0.065 0.454,0.128 0.668,-0.384c0.018,-0.042 0.041,-0.083 0.054,-0.127c0.051,-0.193 0.154,-0.3 0.371,-0.262c0.212,0.038 0.289,-0.141 0.347,-0.468c0.04,-0.223 0.118,-0.436 0.237,-0.628c0.156,-0.248 0.112,-0.335 -0.07,-0.418c-0.532,-0.246 -0.872,-0.727 -1.402,-0.979c-1.632,-0.776 -3.264,-1.552 -4.896,-2.328c-0.231,-0.111 -0.463,-0.217 -0.695,-0.331c-0.03,-0.015 -0.05,-0.051 -0.076,-0.076c0.031,-0 0.064,-0.008 0.095,-0.002c0.208,0.034 0.218,0.051 0.45,0.081c1.4,0.192 5.728,0.813 6.395,0.907c0.053,0.007 0.105,-0.015 0.138,-0.056l2.737,-3.543l-3.294,2.69c-0.057,0.046 -0.131,0.066 -0.201,0.055c-0.389,-0.058 -1.628,-0.319 -1.887,-0.378c-0.031,-0.008 -0.044,-0.046 -0.022,-0.069c0.308,-0.349 1.952,-2.386 1.903,-2.397c-0.047,-0.009 -2.411,1.814 -2.925,2.154c-0.058,0.038 -0.125,0.057 -0.194,0.049c-0.273,-0.025 -1.206,-0.229 -1.474,-0.282c-0.034,-0.007 -0.049,-0.049 -0.027,-0.076c0.275,-0.333 1.717,-1.988 1.724,-2.013c-0.024,0.003 -2.169,1.539 -2.573,1.834c-0.043,0.033 -0.099,0.042 -0.15,0.029c-0.289,-0.076 -1.042,-0.199 -1.299,-0.288c-0.155,-0.054 -0.383,-0.188 -0.524,-0.264c-0.454,-0.247 -1.102,-0.594 -1.945,-1.042c-0.149,-0.079 -0.165,-0.195 -0.208,-0.354c-0.203,-0.746 -1.307,-4.681 -1.332,-4.717c-0.003,0.044 0.23,3.787 0.264,4.329c0.002,0.029 -0.029,0.051 -0.056,0.037c-0.211,-0.114 -0.857,-0.409 -1.418,-0.744c-0.069,-0.04 -0.127,-0.127 -0.159,-0.206c-0.511,-1.259 -1.936,-5.862 -1.963,-5.889c-0,0.033 0.45,4.642 0.494,5.18c0.001,0.023 -0.02,0.039 -0.042,0.032c-0.045,-0.014 -2.126,-1.118 -2.726,-1.433c-0.149,-0.077 -0.214,-0.181 -0.257,-0.327c-0.577,-1.896 -2.055,-6.88 -2.077,-6.902m13.908,15.356c0,0.056 -0.016,0.19 -0.065,0.244c-0.03,0.033 -0.085,0.092 -0.153,0.042l-0.558,-0.536c-0.014,-0.014 0,-0.038 0.018,-0.034l0.686,0.159c0.044,0.013 0.071,0.069 0.071,0.125l0.001,-0Z" style="fill-rule:nonzero;"/></g></svg>