<?xml version="1.0" encoding="UTF-8" standalone="no"?><!DOCTYPE svg PUBLIC "-//W3C//DTD SVG 1.1//EN" "http://www.w3.org/Graphics/SVG/1.1/DTD/svg11.dtd"><svg width="100%" height="100%" viewBox="0 0 32 32" version="1.1" xmlns="http://www.w3.org/2000/svg" xmlns:xlink="http://www.w3.org/1999/xlink" xml:space="preserve" xmlns:serif="http://www.serif.com/" style="fill-rule:evenodd;clip-rule:evenodd;stroke-linejoin:round;stroke-miterlimit:2;"><clipPath id="_clip1"><rect id="The-Deers-Logo-nur-Hirsch.svg" serif:id="The Deers Logo nur Hirsch.svg" x="0" y="0" width="32" height="32"/></clipPath><g clip-path="url(#_clip1)"><g><g id="Ebene_1"><path d="M10.863,6.076c0.016,0.16 0.083,0.243 0.214,0.315c2.134,1.175 7.624,4.253 8.267,4.61c0.048,0.027 0.089,0.066 0.134,0.098c-0.051,-0.012 -0.102,-0.016 -0.15,-0.032c-1.255,-0.409 -2.509,-0.761 -3.763,-1.171c-0.216,-0.071 -0.43,-0.091 -0.645,-0.161c-0.027,-0.008 -0.059,-0 -0.089,-0c0.006,0.028 0.004,0.06 0.019,0.086c0.019,0.035 0.046,0.065 0.07,0.099c0.549,0.741 1.133,1.429 1.781,2.287c0.111,0.149 0.223,0.471 0.229,0.675c0.016,0.455 -1.222,1.813 -2.098,2.858c-0.868,1.038 -2.485,2.712 -3.015,3.256c-0.11,0.113 -0.26,0.18 -0.42,0.186c0,0 -9.74,0.403 -9.74,0.415c0,0.013 7.843,0.35 9.428,0.418c0.169,0.008 0.317,0.112 0.383,0.268c0.523,1.273 2.814,6.845 2.838,6.888l-1.497,-5.323c-0.048,-0.162 -0.025,-0.271 0.056,-0.403c1.012,-1.647 3.722,-5.707 3.729,-5.737c-0.023,0.019 -3.582,4.531 -4.013,5.067c-0.019,0.024 -0.059,0.017 -0.065,-0.011c-0.045,-0.166 -0.11,-0.404 -0.134,-0.513c-0.042,-0.181 -0.029,-0.296 0.086,-0.44c0.841,-1.058 1.645,-2.106 2.481,-3.168c0.861,-1.093 1.863,-2.154 2.72,-3.249c0.086,-0.11 0.188,-0.164 0.321,-0.194c0.442,-0.101 0.925,-0.109 1.376,-0.153c0.078,-0.008 0.158,-0.018 0.241,-0.031c0.083,-0.012 0.056,-0.03 0,-0.057c-0.087,-0.032 -0.138,-0.053 -0.261,-0.093c-0.262,-0.084 -0.535,-0.124 -0.803,-0.188c-0.027,-0.006 -0.049,-0.03 -0.073,-0.045c0.029,-0.009 0.056,-0.027 0.086,-0.028c0.195,-0.01 0.388,-0.016 0.582,-0.024c0.364,-0.013 0.728,-0.023 1.09,-0.04c0.112,-0.005 0.051,-0.058 0.022,-0.072c-0.011,-0.005 -0.028,-0.013 -0.04,-0.016c-0.903,-0.282 -1.806,-0.569 -2.712,-0.845c-0.193,-0.06 -0.359,-0.139 -0.474,-0.308c-0.054,-0.079 -0.11,-0.155 -0.166,-0.233c0.099,0.017 0.203,0.022 0.297,0.052c1.114,0.343 2.231,0.678 3.338,1.042c0.421,0.137 0.472,0.15 0.874,0.338c0.043,0.021 0.158,0.059 0.171,0.109c-0.062,0.04 -0.179,0.1 -0.399,0.084c-0.032,-0.003 -0.094,-0.032 -0.117,0c0,0.04 0.069,0.101 0.088,0.122c0.346,0.351 0.768,0.743 1.114,1.096c0.089,0.091 0.148,0.057 0.223,-0.034c0.128,-0.153 0.222,-0.352 0.292,-0.52c0.054,-0.129 0.101,-0.167 0.236,-0.104c0.512,0.241 0.938,0.41 1.454,0.645c0.293,0.134 0.62,0.23 0.871,0.421c0.446,0.345 0.848,0.748 1.268,1.13c0.022,0.02 0.035,0.051 0.051,0.076c-0.033,0.011 -0.07,0.035 -0.102,0.031c-0.198,-0.029 -0.302,0.063 -0.351,0.245c-0.018,0.061 -0.065,0.114 -0.085,0.174c-0.039,0.126 -0.118,0.131 -0.226,0.101c-0.211,-0.059 -0.426,-0.102 -0.635,-0.165c-1.19,-0.351 -1.934,-0.569 -2.953,-0.702c-0.037,-0.004 -0.338,0.101 -0.375,0.13c0.064,0.014 0.217,0.011 0.255,0.017c0.592,0.109 0.895,0.287 1.273,0.452c-0.217,0.003 -0.434,-0 -0.647,0.024c-1.037,0.122 -2.145,0.355 -3.178,0.494c-0.162,0.022 -0.208,-0.027 -0.237,-0.174c-0.068,-0.365 -0.146,-0.73 -0.232,-1.093c-0.032,-0.137 -0.008,-0.25 0.065,-0.367c0.163,-0.26 0.392,-0.625 0.55,-0.89c0.018,-0.03 0.018,-0.072 0.026,-0.108c-0.037,0.011 -0.078,0.012 -0.109,0.033c-0.381,0.246 -0.762,0.49 -1.136,0.747c-0.057,0.04 -0.097,0.143 -0.1,0.218c-0.005,0.154 0.021,0.307 0.033,0.46c0.059,0.71 0.119,1.418 0.179,2.128c0.024,0.289 0.136,0.287 0.428,0.217c0.172,-0.041 0.403,-0.158 0.577,-0.194c0.196,-0.042 0.203,-0.034 0.16,0.153c-0.01,0.04 -0.023,0.078 -0.034,0.116c-0.257,0.97 -3.581,12.168 -3.585,12.199c0.013,-0.028 3.96,-11.564 4.314,-12.593c0.015,-0.041 0.05,-0.072 0.093,-0.08c0.136,-0.025 0.426,-0.079 0.479,-0.086c0.025,-0.003 0.047,0.019 0.044,0.045c-0.009,0.075 -5.375,15.861 -5.376,15.885c0.011,-0.024 6.085,-15.252 6.389,-16.027c0.029,-0.072 0.074,-0.177 0.128,-0.19c0.319,-0.073 0.649,-0.195 0.967,-0.171c0.943,0.072 1.879,0.208 2.82,0.308c0.535,0.058 0.401,0.113 0.589,-0.338c0.016,-0.037 0.037,-0.073 0.048,-0.112c0.045,-0.17 0.136,-0.265 0.327,-0.231c0.187,0.033 0.255,-0.124 0.306,-0.413c0.035,-0.196 0.104,-0.385 0.209,-0.554c0.138,-0.218 0.099,-0.295 -0.062,-0.368c-0.469,-0.217 -0.769,-0.642 -1.236,-0.864c-1.439,-0.684 -2.878,-1.368 -4.317,-2.053c-0.205,-0.097 -0.409,-0.191 -0.613,-0.292c-0.027,-0.013 -0.045,-0.044 -0.067,-0.067c0.027,0 0.056,-0.006 0.083,-0.001c0.183,0.03 0.193,0.044 0.397,0.071c1.235,0.17 5.051,0.717 5.64,0.8c0.046,0.006 0.092,-0.013 0.121,-0.05l2.414,-3.124l-2.905,2.373c-0.05,0.04 -0.115,0.057 -0.177,0.048c-0.343,-0.051 -1.436,-0.281 -1.664,-0.334c-0.027,-0.006 -0.039,-0.04 -0.02,-0.06c0.272,-0.308 1.722,-2.105 1.679,-2.114c-0.042,-0.008 -2.127,1.6 -2.58,1.9c-0.051,0.033 -0.11,0.049 -0.171,0.043c-0.241,-0.022 -1.064,-0.203 -1.3,-0.249c-0.03,-0.006 -0.043,-0.043 -0.024,-0.067c0.243,-0.294 1.514,-1.753 1.521,-1.776c-0.021,0.004 -1.913,1.358 -2.269,1.618c-0.038,0.029 -0.088,0.037 -0.132,0.026c-0.256,-0.067 -0.919,-0.176 -1.146,-0.254c-0.137,-0.048 -0.338,-0.166 -0.463,-0.233c-0.4,-0.218 -0.971,-0.524 -1.715,-0.919c-0.131,-0.07 -0.145,-0.172 -0.183,-0.313c-0.179,-0.657 -1.152,-4.127 -1.174,-4.159c-0.004,0.038 0.202,3.339 0.233,3.818c0.001,0.025 -0.026,0.045 -0.05,0.032c-0.187,-0.101 -0.756,-0.361 -1.251,-0.656c-0.06,-0.035 -0.111,-0.112 -0.14,-0.182c-0.45,-1.11 -1.707,-5.169 -1.731,-5.193c-0,0.029 0.397,4.094 0.435,4.568c0.002,0.021 -0.017,0.035 -0.036,0.029c-0.04,-0.013 -1.875,-0.986 -2.405,-1.264c-0.13,-0.069 -0.188,-0.16 -0.226,-0.289c-0.509,-1.672 -1.812,-6.067 -1.832,-6.086m12.266,13.542c-0,0.049 -0.015,0.167 -0.058,0.215c-0.027,0.029 -0.075,0.081 -0.135,0.037l-0.492,-0.473c-0.012,-0.012 0,-0.033 0.016,-0.03l0.605,0.141c0.038,0.011 0.062,0.06 0.062,0.11l0.002,-0Z" style="fill:#878787;fill-rule:nonzero;"/></g></g></g></svg>