<?xml version="1.0" encoding="UTF-8"?>
<svg xmlns="http://www.w3.org/2000/svg" version="1.1" viewBox="0 0 841.89 595.28">
  <defs>
    <style>
      .cls-1 {
        fill: #666;
      }

      .cls-2 {
        fill: #878787;
      }
    </style>
  </defs>
  <!-- Generator: Adobe Illustrator 28.7.1, SVG Export Plug-In . SVG Version: 1.2.0 Build 142)  -->
  <g>
    <g id="Ebene_1">
      <path d="M472.33,414.61"/>
      <path class="cls-1" d="M275.96,140.6c.24,2.44,1.26,3.71,3.27,4.82,32.71,18.02,116.83,65.17,126.68,70.66.73.41,1.37.99,2.06,1.49-.77-.16-1.56-.25-2.31-.49-19.23-6.25-38.45-11.67-57.67-17.95-3.3-1.08-6.57-1.4-9.87-2.48-.41-.13-.91,0-1.36,0h0c.09.44.08.93.28,1.32.28.54.72,1.01,1.09,1.5,8.41,11.36,17.35,21.89,27.29,35.05,1.71,2.26,3.43,7.2,3.53,10.34.24,6.97-18.73,27.76-32.14,43.79-13.3,15.91-38.09,41.56-46.2,49.9-1.69,1.74-3.99,2.77-6.42,2.87,0,0-149.25,6.17-149.25,6.36s120.17,5.36,144.44,6.4c2.59.11,4.87,1.72,5.86,4.12,8.01,19.5,43.12,104.89,43.49,105.54l-22.92-81.57c-.74-2.48-.39-4.15.87-6.19,15.51-25.24,57.05-87.44,57.12-87.91-.33.29-54.87,69.42-61.49,77.65-.29.36-.89.28-1.01-.17-.68-2.53-1.68-6.18-2.05-7.85-.63-2.79-.43-4.56,1.31-6.74,12.89-16.2,25.21-32.28,38.02-48.54,13.19-16.74,28.54-33.01,41.69-49.78,1.32-1.69,2.88-2.52,4.91-2.99,6.77-1.54,14.18-1.66,21.09-2.35q1.77-.18,3.68-.47s.85-.47,0-.89c-1.33-.48-2.13-.82-4-1.42-4.01-1.29-8.2-1.91-12.29-2.89-.41-.1-.75-.45-1.12-.69.44-.15.87-.42,1.31-.44,2.97-.15,5.95-.25,8.92-.36,5.57-.2,11.14-.34,16.71-.61,1.7-.08.78-.87.34-1.09-.16-.08-.44-.19-.62-.25-13.85-4.34-27.67-8.73-41.56-12.96-2.96-.9-5.5-2.13-7.27-4.71-.83-1.2-1.69-2.38-2.53-3.57,0,0,0,0,0,0,1.52.26,3.09.35,4.56.8,17.07,5.26,34.18,10.39,51.14,15.95,6.45,2.11,7.24,2.29,13.4,5.19.66.31,2.42.9,2.61,1.66-.96.61-2.74,1.55-6.12,1.29-.48-.04-1.44-.48-1.79.02-.02.61,1.05,1.54,1.35,1.85,5.31,5.39,11.75,11.4,17.05,16.8,1.37,1.4,2.26.88,3.43-.51,1.97-2.34,3.41-5.41,4.48-7.98.83-1.98,1.53-2.57,3.61-1.59,7.85,3.68,14.38,6.29,22.27,9.88,4.51,2.05,9.5,3.51,13.34,6.46,6.86,5.28,13,11.47,19.43,17.3.34.31.53.77.79,1.17h0c-.52.16-1.08.53-1.57.46-3.03-.44-4.61.98-5.38,3.77-.26.94-1.01,1.73-1.3,2.66-.6,1.93-1.81,2-3.47,1.53-3.23-.9-6.52-1.57-9.73-2.51-18.24-5.39-29.62-8.72-45.25-10.75-.57-.07-5.19,1.54-5.76,1.99h0c.99.21,3.33.16,3.91.27,9.07,1.66,13.72,4.4,19.51,6.92-3.32.05-6.65-.02-9.92.37-15.88,1.88-32.85,5.45-48.7,7.59-2.48.33-3.19-.43-3.61-2.68-1.05-5.61-2.26-11.19-3.56-16.74-.49-2.1-.13-3.85.99-5.63,2.5-3.99,6.02-9.59,8.43-13.64.28-.47.27-1.1.4-1.66,0,0,0,0,0,0-.56.16-1.2.2-1.67.5-5.84,3.77-11.7,7.5-17.41,11.44-.89.61-1.5,2.2-1.54,3.35-.08,2.34.32,4.69.51,7.04.91,10.87,1.81,21.74,2.74,32.6.38,4.42,2.09,4.41,6.56,3.32,2.65-.64,6.18-2.42,8.85-2.98,3.01-.64,3.11-.51,2.43,2.36-.14.6-.34,1.19-.5,1.79-3.94,14.87-54.89,186.46-54.93,186.92.2-.43,60.68-177.18,66.11-192.95.22-.64.76-1.1,1.42-1.23,2.08-.39,6.54-1.22,7.35-1.32.4-.05.74.29.68.68-.15,1.14-82.35,243.04-82.39,243.42.17-.36,93.23-233.71,97.91-245.59.43-1.09,1.12-2.71,1.96-2.91,4.9-1.13,9.96-2.98,14.82-2.61,14.44,1.09,28.81,3.18,43.22,4.72,8.19.88,6.13,1.74,9.03-5.17.24-.57.57-1.12.72-1.71.68-2.61,2.07-4.06,5.01-3.53,2.87.52,3.91-1.9,4.7-6.33.53-3,1.58-5.9,3.21-8.48,2.1-3.34,1.51-4.52-.94-5.65-7.19-3.32-11.79-9.83-18.94-13.23-22.05-10.49-44.11-20.98-66.16-31.47-3.13-1.49-6.27-2.94-9.38-4.46-.41-.2-.68-.68-1.01-1.03.43-.01.87-.1,1.28-.03,2.81.47,2.97.67,6.1,1.1,18.93,2.58,77.4,10.97,86.42,12.25.71.1,1.41-.19,1.85-.75l36.99-47.86-44.51,36.35c-.77.62-1.75.89-2.72.74-5.24-.79-21.99-4.29-25.5-5.1-.42-.1-.59-.61-.3-.93,4.17-4.71,26.39-32.25,25.71-32.38-.65-.12-32.6,24.53-39.53,29.13-.78.52-1.7.75-2.63.67-3.7-.34-16.31-3.1-19.91-3.81-.47-.09-.67-.65-.36-1.02,3.72-4.5,23.19-26.88,23.29-27.21-.31.04-29.3,20.8-34.77,24.79-.59.43-1.33.57-2.04.38-3.91-1.02-14.07-2.69-17.56-3.89-2.1-.72-5.18-2.53-7.09-3.57q-9.2-5.01-26.29-14.07c-2-1.07-2.22-2.64-2.8-4.78-2.73-10.07-17.65-63.24-17.99-63.73-.05.59,3.11,51.17,3.58,58.5.03.4-.4.67-.75.48-2.85-1.53-11.58-5.53-19.16-10.04-.92-.55-1.71-1.72-2.14-2.78-6.89-17.01-26.16-79.21-26.53-79.57,0,.45,6.08,62.73,6.67,69.98.03.31-.27.54-.56.45-.61-.19-28.72-15.12-36.85-19.37-1.99-1.04-2.88-2.44-3.48-4.43-7.79-25.63-27.78-92.97-28.07-93.27M453,248.43c0,.75-.21,2.57-.88,3.3-.41.45-1.15,1.25-2.07.57l-7.54-7.23c-.18-.2-.01-.52.26-.47l9.27,2.15c.6.16.96.93.96,1.68Z"/>
      <g>
        <path class="cls-2" d="M80.1,393.45h-23.94v-11.02h60.33v11.02h-23.94v69.58h-12.45v-69.58Z"/>
        <path class="cls-2" d="M130,382.43h12.56v43.38h38.76v-43.38h12.56v80.6h-12.56v-26.08h-38.76v26.08h-12.56v-80.6Z"/>
        <path class="cls-2" d="M213.33,382.43h51.21v11.02h-38.64v31.29h34.26v10.79h-34.26v16.48h40.3v11.02h-52.86v-80.6Z"/>
      </g>
      <g>
        <path class="cls-2" d="M444.84,380.35h22.17c25.84,0,43.03,16.12,43.03,40.3s-17.07,40.3-43.03,40.3h-22.17v-80.6ZM466.18,449.93c20.98,0,30.82-12.09,30.82-29.28s-9.84-29.28-30.82-29.28h-8.77v58.55h8.77Z"/>
        <path class="cls-2" d="M525.68,380.35h51.21v11.02h-38.64v31.29h34.26v10.79h-34.26v16.48h40.3v11.02h-52.86v-80.6Z"/>
        <path class="cls-2" d="M595.26,380.35h51.21v11.02h-38.64v31.29h34.26v10.79h-34.26v16.48h40.3v11.02h-52.86v-80.6Z"/>
        <path class="cls-2" d="M720.67,460.95h-14.46l-14.46-21.22c-2.25.24-4.5.47-6.76.47h-7.59v20.74h-12.56v-80.6h20.15c22.28,0,34.73,11.62,34.73,30.11,0,12.45-5.57,20.98-16.12,25.6l17.07,24.89ZM684.52,429.42c16,0,22.4-6.99,22.4-18.96s-6.64-19.08-22.4-19.08h-7.11v38.05h7.11Z"/>
        <path class="cls-2" d="M729.33,445.3l10.31-5.69c3.79,6.28,8.65,11.26,18.49,11.26,8.18,0,13.99-4.39,13.99-11.02,0-6.99-4.74-10.08-13.51-13.99l-5.33-2.37c-11.73-5.22-18.85-11.14-18.85-23.59s9.25-20.51,22.64-20.51c10.67,0,17.9,4.03,22.76,12.68l-9.84,6.04c-3.08-5.33-6.64-7.82-12.92-7.82s-10.43,3.91-10.43,9.36c0,6.04,3.44,8.77,11.62,12.33l5.22,2.37c13.75,6.04,21.1,12.45,21.1,25.37,0,14.11-11.02,22.28-26.2,22.28s-24.54-7.59-29.04-16.71Z"/>
      </g>
    </g>
  </g>
</svg>